<?xml version="1.0" encoding="UTF-8"?>
<svg width="185px" height="184px" viewBox="0 0 185 184" version="1.1" xmlns="http://www.w3.org/2000/svg" xmlns:xlink="http://www.w3.org/1999/xlink">
    <!-- Generator: Sketch 45 (43475) - http://www.bohemiancoding.com/sketch -->
    <title>Star</title>
    <desc>Created with Sketch.</desc>
    <defs></defs>
    <g id="FF---Desktop" stroke="none" stroke-width="1" fill="none" fill-rule="evenodd">
        <g id="HOME-" transform="translate(-1052.000000, -3584.000000)" fill="#92683C">
            <g id="TESTIMONIALS" transform="translate(0.000000, 3422.000000)">
                <g id="Quote" transform="translate(591.000000, 162.000000)">
                    <g id="Image" transform="translate(461.000000, 0.000000)">
                        <polygon id="Star" points="92.3183594 109.787268 86.5216416 184.27238 90.1060927 109.648084 75.0196238 182.819338 87.9287148 109.232727 63.7904174 179.936167 85.8205642 108.547747 53.0111137 175.668339 83.8148877 107.603948 42.8517088 170.083159 81.943316 106.416212 33.4724224 163.268709 80.235365 105.003272 25.0211717 155.332456 78.71797 103.387411 17.6312377 146.39956 77.4150613 101.594111 11.4191644 136.610899 76.3471865 99.6516537 6.48291961 126.120845 75.5311866 97.5906732 2.90035102 115.094833 74.9799305 95.4436724 0.727957838 103.706749 74.7021118 93.2445105 0 92.1361902 74.7021118 91.0278698 0.727957838 80.5656317 74.9799305 88.828708 2.90035102 69.1775478 75.5311866 86.6817071 6.48291961 58.1515354 76.3471865 84.6207267 11.4191644 47.6614814 77.4150613 82.6782696 17.6312377 37.87282 78.71797 80.8849696 25.0211717 28.9399244 80.235365 79.2691081 33.4724224 21.0036717 81.943316 77.8561681 42.8517088 14.1892213 83.8148877 76.6684326 53.0111137 8.60404118 85.8205642 75.7246329 63.7904174 4.33621292 87.9287148 75.0396533 75.0196238 1.45304276 90.1060927 74.6242962 86.5216416 1.44217971e-13 92.3183594 74.4851122 98.1150771 1.44217971e-13 94.5306261 74.6242962 109.617095 1.45304276 96.708004 75.0396533 120.846301 4.33621292 98.8161546 75.7246329 131.625605 8.60404118 100.821831 76.6684326 141.78501 14.1892213 102.693403 77.8561681 151.164296 21.0036717 104.401354 79.2691081 159.615547 28.9399244 105.918749 80.8849696 167.005481 37.87282 107.221657 82.6782696 173.217554 47.6614814 108.289532 84.6207267 178.153799 58.1515354 109.105532 86.6817071 181.736368 69.1775478 109.656788 88.828708 183.908761 80.5656317 109.934607 91.0278698 184.636719 92.1361902 109.934607 93.2445105 183.908761 103.706749 109.656788 95.4436724 181.736368 115.094833 109.105532 97.5906732 178.153799 126.120845 108.289532 99.6516537 173.217554 136.610899 107.221657 101.594111 167.005481 146.39956 105.918749 103.387411 159.615547 155.332456 104.401354 105.003272 151.164296 163.268709 102.693403 106.416212 141.78501 170.083159 100.821831 107.603948 131.625605 175.668339 98.8161546 108.547747 120.846301 179.936167 96.708004 109.232727 109.617095 182.819338 94.5306261 109.648084 98.1150771 184.27238"></polygon>
                    </g>
                </g>
            </g>
        </g>
    </g>
</svg>